<?xml version="1.0" encoding="UTF-8" standalone="no"?><svg xmlns="http://www.w3.org/2000/svg" xmlns:xlink="http://www.w3.org/1999/xlink" height="657px" preserveAspectRatio="none" style="width:511px;height:657px;background:#FFFFFF;" version="1.1" viewBox="0 0 511 657" width="511px" zoomAndPan="magnify"><defs/><g><rect fill="#FFFFFF" height="40" rx="12.5" ry="12.5" style="stroke:#000000;stroke-width:1.0;" width="195" x="12" y="113"/><text fill="#000000" font-family="sans-serif" font-size="16" lengthAdjust="spacing" textLength="179" x="20" y="139.0469">GainNode (ScriptEvent)</text><rect fill="#FFFFFF" height="40" rx="12.5" ry="12.5" style="stroke:#000000;stroke-width:1.0;" width="187" x="22" y="197"/><text fill="#000000" font-family="sans-serif" font-size="16" lengthAdjust="spacing" textLength="171" x="30" y="223.0469">PanNode (ScriptEvent)</text><rect fill="#FFFFFF" height="40" rx="12.5" ry="12.5" style="stroke:#000000;stroke-width:1.0;" width="143" x="204" y="445"/><text fill="#000000" font-family="sans-serif" font-size="16" lengthAdjust="spacing" textLength="127" x="212" y="471.0469">GainNode (Text)</text><rect fill="#FFFFFF" height="40" rx="12.5" ry="12.5" style="stroke:#000000;stroke-width:1.0;" width="135" x="208" y="360"/><text fill="#000000" font-family="sans-serif" font-size="16" lengthAdjust="spacing" textLength="119" x="216" y="386.0469">PanNode (Text)</text><rect fill="#FFFFFF" height="40" rx="12.5" ry="12.5" style="stroke:#000000;stroke-width:1.0;" width="233" x="272" y="113"/><text fill="#000000" font-family="sans-serif" font-size="16" lengthAdjust="spacing" textLength="217" x="280" y="139.0469">GainNode (AudioRecording)</text><rect fill="#FFFFFF" height="40" rx="12.5" ry="12.5" style="stroke:#000000;stroke-width:1.0;" width="225" x="275" y="197"/><text fill="#000000" font-family="sans-serif" font-size="16" lengthAdjust="spacing" textLength="209" x="283" y="223.0469">PanNode (AudioRecording)</text><rect fill="#000000" height="8" style="stroke:none;stroke-width:1.0;" width="80" x="235.5" y="542"/><rect fill="#000000" height="8" style="stroke:none;stroke-width:1.0;" width="80" x="235.5" y="295"/><ellipse cx="388.5" cy="21" fill="#000000" rx="10" ry="10" style="stroke:none;stroke-width:1.0;"/><ellipse cx="109.5" cy="21" fill="#000000" rx="10" ry="10" style="stroke:none;stroke-width:1.0;"/><g id="elem_GMN18"><path d="M33,281.5 L33,316.3438 A0,0 0 0 0 33,316.3438 L170,316.3438 A0,0 0 0 0 170,316.3438 L170,303 L235.3,299 L170,295 L170,291.5 L160,281.5 L33,281.5 A0,0 0 0 0 33,281.5 " fill="#FFFFFF" style="stroke:#000000;stroke-width:1.0;"/><path d="M160,281.5 L160,291.5 L170,291.5 L160,281.5 " fill="#FFFFFF" style="stroke:#000000;stroke-width:1.0;"/><text fill="#000000" font-family="sans-serif" font-size="16" lengthAdjust="spacing" textLength="110" x="42" y="304.9688">Implicit mixer</text></g><ellipse cx="275.5" cy="641" fill="none" rx="10" ry="10" style="stroke:#000000;stroke-width:1.0;"/><ellipse cx="276" cy="641.5" fill="#000000" rx="6" ry="6" style="stroke:none;stroke-width:1.0;"/><g id="elem_GMN26"><path d="M57,528.5 L57,563.3438 A0,0 0 0 0 57,563.3438 L170,563.3438 A0,0 0 0 0 170,563.3438 L170,550 L235.29,546 L170,542 L170,538.5 L160,528.5 L57,528.5 A0,0 0 0 0 57,528.5 " fill="#FFFFFF" style="stroke:#000000;stroke-width:1.0;"/><path d="M160,528.5 L160,538.5 L170,538.5 L160,528.5 " fill="#FFFFFF" style="stroke:#000000;stroke-width:1.0;"/><text fill="#000000" font-family="sans-serif" font-size="16" lengthAdjust="spacing" textLength="86" x="66" y="551.9688">Master bus</text></g><!--MD5=[78b84c9344a1481ca2e7569d755b7791]
link *start to GN1--><g id="link_*start_GN1"><path d="M109.5,31.38 C109.5,47.81 109.5,82.34 109.5,106.33 " fill="none" id="*start-to-GN1" style="stroke:#000000;stroke-width:1.0;"/><polygon fill="#000000" points="109.5,111.28,113.5,102.28,109.5,106.28,105.5,102.28,109.5,111.28" style="stroke:#000000;stroke-width:1.0;"/><text fill="#000000" font-family="sans-serif" font-size="13" lengthAdjust="spacing" textLength="112" x="113.5" y="76.0684">Programme Audio</text></g><!--MD5=[64ab020211cf346a2e3b3e5eba9983bf]
link GN1 to PN1--><g id="link_GN1_PN1"><path d="M110.92,153.43 C111.73,164.46 112.75,178.4 113.62,190.32 " fill="none" id="GN1-to-PN1" style="stroke:#000000;stroke-width:1.0;"/><polygon fill="#000000" points="113.98,195.2,117.3003,185.9277,113.6085,190.2138,109.3224,186.522,113.98,195.2" style="stroke:#000000;stroke-width:1.0;"/></g><!--MD5=[6232ff64b2dab6949129b8cedba842c2]
link AS to GN3--><g id="link_AS_GN3"><path d="M388.5,31.38 C388.5,47.81 388.5,82.34 388.5,106.33 " fill="none" id="AS-to-GN3" style="stroke:#000000;stroke-width:1.0;"/><polygon fill="#000000" points="388.5,111.28,392.5,102.28,388.5,106.28,384.5,102.28,388.5,111.28" style="stroke:#000000;stroke-width:1.0;"/><text fill="#000000" font-family="sans-serif" font-size="13" lengthAdjust="spacing" textLength="100" x="392.5" y="68.5684">AudioRecording</text><text fill="#000000" font-family="sans-serif" font-size="13" lengthAdjust="spacing" textLength="83" x="392.5" y="83.8789">Source Audio</text></g><!--MD5=[8c9f34730db7b39be9c5d185a8c223b9]
link GN3 to PN3--><g id="link_GN3_PN3"><path d="M388.26,153.43 C388.13,164.46 387.96,178.4 387.81,190.32 " fill="none" id="GN3-to-PN3" style="stroke:#000000;stroke-width:1.0;"/><polygon fill="#000000" points="387.75,195.19,391.8526,186.2363,387.8071,190.1903,383.8531,186.1449,387.75,195.19" style="stroke:#000000;stroke-width:1.0;"/></g><!--MD5=[7b9117d3f4916ae39ac847a760edb77a]
link PN1 to M1--><g id="link_PN1_M1"><path d="M154.23,237.37 C189.57,255.03 239.7,280.1 262.86,291.68 " fill="none" id="PN1-to-M1" style="stroke:#000000;stroke-width:1.0;"/><polygon fill="#000000" points="267.29,293.9,261.0193,286.3054,262.815,291.6697,257.4507,293.4654,267.29,293.9" style="stroke:#000000;stroke-width:1.0;"/></g><!--MD5=[392c4814316265b60afd116479656829]
link PN3 to M1--><g id="link_PN3_M1"><path d="M360.39,237.37 C336.17,254.66 302.03,279.05 285.39,290.94 " fill="none" id="PN3-to-M1" style="stroke:#000000;stroke-width:1.0;"/><polygon fill="#000000" points="281.34,293.83,290.9912,291.8666,285.4125,290.9292,286.3499,285.3506,281.34,293.83" style="stroke:#000000;stroke-width:1.0;"/></g><!--MD5=[b0470ef9598eb3db2fc9964596078660]
link M1 to PN2--><g id="link_M1_PN2"><path d="M275.5,303.39 C275.5,311.99 275.5,335.25 275.5,353.72 " fill="none" id="M1-to-PN2" style="stroke:#000000;stroke-width:1.0;"/><polygon fill="#000000" points="275.5,358.26,279.5,349.26,275.5,353.26,271.5,349.26,275.5,358.26" style="stroke:#000000;stroke-width:1.0;"/></g><!--MD5=[d6a6dfaf610f79e560e3287744bb55f4]
link PN2 to GN2--><g id="link_PN2_GN2"><path d="M275.5,400.25 C275.5,411.59 275.5,426.07 275.5,438.36 " fill="none" id="PN2-to-GN2" style="stroke:#000000;stroke-width:1.0;"/><polygon fill="#000000" points="275.5,443.05,279.5,434.05,275.5,438.05,271.5,434.05,275.5,443.05" style="stroke:#000000;stroke-width:1.0;"/></g><!--MD5=[8e9f8947328f5c06802704de4eb671b5]
link GN2 to MB--><g id="link_GN2_MB"><path d="M275.5,485.12 C275.5,501.16 275.5,523.36 275.5,535.73 " fill="none" id="GN2-to-MB" style="stroke:#000000;stroke-width:1.0;"/><polygon fill="#000000" points="275.5,540.5,279.5,531.5,275.5,535.5,271.5,531.5,275.5,540.5" style="stroke:#000000;stroke-width:1.0;"/></g><!--MD5=[0d9006013d38754aabeedef9354d7659]
link MB to *end--><g id="link_MB_*end"><path d="M275.5,550.09 C275.5,561.52 275.5,601.83 275.5,624.4 " fill="none" id="MB-to-*end" style="stroke:#000000;stroke-width:1.0;"/><polygon fill="#000000" points="275.5,629.27,279.5,620.27,275.5,624.27,271.5,620.27,275.5,629.27" style="stroke:#000000;stroke-width:1.0;"/><text fill="#000000" font-family="sans-serif" font-size="13" lengthAdjust="spacing" textLength="85" x="279.5" y="602.0684">Output Audio</text></g><!--MD5=[935a21dbf86ba8b57ffd0a43401515cc]
@startuml webaudio-nodes
!theme plain
!pragma ratio 1.3
skinparam groupInheritance 2
' skinparam linetype ortho
skinparam DefaultFontName sans-serif
skinparam DefaultFontSize 16
skinparam ArrowFontSize 13
skinparam ArrowMessageAlignment direction
skinparam Padding 3
skinparam Nodesep 65
skinparam Ranksep 40
' skinparam MinClassWidth 220

hide empty description

state GN1 as "GainNode (ScriptEvent)"
state PN1 as "PanNode (ScriptEvent)"
state GN2 as "GainNode (Text)"
state PN2 as "PanNode (Text)"
state GN3 as "GainNode (AudioRecording)"
state PN3 as "PanNode (AudioRecording)"
state MB as "Master Bus" <<join>>
state M1 as "+" <<join>>
state AS as "AudioRecording Source" <<start>>

[*] - -> GN1 : Programme Audio
GN1 - -> PN1

AS - -> GN3 : AudioRecording\lSource Audio
GN3 - -> PN3

PN1 - -> M1
PN3 - -> M1

note left of M1
  Implicit mixer
end note

M1 - -> PN2
PN2 - -> GN2

GN2 - -> MB
MB - -> [*] : Output Audio

note left of MB
  Master bus
end note

@enduml

@startuml webaudio-nodes







<style>
  root {
    BackgroundColor white
    FontColor black
    FontName Verdana
    HyperLinkColor blue
    LineColor black
    LineThickness 1
    Margin 5
  }
  caption {
    LineThickness 0
  }
  footer {
    LineThickness 0
  }
  header {
    LineThickness 0
  }
  node {
    MaximumWidth 300
  }
  title {
    FontSize 22
    LineThickness 0
  }
</style>

skinparam ArrowLollipopColor black
skinparam BackgroundColor white
skinparam DefaultFontName Verdana
skinparam DefaultMonospacedFontName Courier
skinparam LifelineStrategy nosolid
skinparam ParticipantPadding 10
skinparam SequenceLifeLineBorderColor black
skinparam Shadowing false
skinparam UseBetaStyle true

skinparam Activity {
  BackgroundColor white
  BarColor black
  BorderColor black
  FontColor black
  FontName Verdana
}
skinparam Boundary {
  FontColor black
}
skinparam Box {
  Padding 5
}
skinparam CircledCharacter {
  FontColor black
  FontName Courier
  Radius 9
}
skinparam Class {
  BackgroundColor white
  BorderColor black
  FontColor black
  FontName Verdana
}
skinparam ClassAttribute {
  FontColor black
  FontName Verdana
}
skinparam ClassStereotype {
  FontColor black
  FontName Verdana
}
skinparam Footer {
  FontColor black
  FontName Verdana
}
skinparam Header {
  FontColor black
  FontName Verdana
}
skinparam Hyperlink {
  Color blue
}
skinparam IconPackage {
  Color black
  BackgroundColor white
}
skinparam IconPrivate {
  Color black
  BackgroundColor white
}
skinparam IconProtected {
  Color black
  BackgroundColor white
}
skinparam IconPublic {
  Color black
  BackgroundColor white
}
skinparam Note {
  FontColor black
  FontName Verdana
}
skinparam Object {
  BorderColor black
}
skinparam Package {
  BorderColor black
  FontColor black
  FontName Verdana
}
skinparam State {
  BackgroundColor white
  BorderColor black
}
skinparam StereotypeA {
  BackgroundColor white
  BorderColor black
}
skinparam StereotypeC {
  BackgroundColor white
  BorderColor black
}
skinparam StereotypeE {
  BackgroundColor white
  BorderColor black
}
skinparam StereotypeI {
  BackgroundColor white
  BorderColor black
}
skinparam StereotypeN {
  BackgroundColor white
  BorderColor black
}
skinparam UseCaseStereoType {
  FontColor black
  FontName Verdana
}
!pragma ratio 1.3
skinparam groupInheritance 2
skinparam DefaultFontName sans-serif
skinparam DefaultFontSize 16
skinparam ArrowFontSize 13
skinparam ArrowMessageAlignment direction
skinparam Padding 3
skinparam Nodesep 65
skinparam Ranksep 40

hide empty description

state GN1 as "GainNode (ScriptEvent)"
state PN1 as "PanNode (ScriptEvent)"
state GN2 as "GainNode (Text)"
state PN2 as "PanNode (Text)"
state GN3 as "GainNode (AudioRecording)"
state PN3 as "PanNode (AudioRecording)"
state MB as "Master Bus" <<join>>
state M1 as "+" <<join>>
state AS as "AudioRecording Source" <<start>>

[*] - -> GN1 : Programme Audio
GN1 - -> PN1

AS - -> GN3 : AudioRecording\lSource Audio
GN3 - -> PN3

PN1 - -> M1
PN3 - -> M1

note left of M1
  Implicit mixer
end note

M1 - -> PN2
PN2 - -> GN2

GN2 - -> MB
MB - -> [*] : Output Audio

note left of MB
  Master bus
end note

@enduml

PlantUML version 1.2022.7(Mon Aug 22 18:01:30 BST 2022)
(GPL source distribution)
Java Runtime: OpenJDK Runtime Environment
JVM: OpenJDK 64-Bit Server VM
Default Encoding: UTF-8
Language: en
Country: GB
--></g></svg>